{
insert cmd
event_id: -1543649019, duration = 0
    "streams": [
        {
            "index": 0,
            "codec_name": "hevc",
            "codec_long_name": "H.265 / HEVC (High Efficiency Video Coding)",
            "profile": "Main 10",
            "codec_type": "video",
            "codec_time_base": "1001/24000",
            "codec_tag_string": "HEVC",
            "codec_tag": "0x43564548",
            "width": 3840,
            "height": 2160,
            "coded_width": 3840,
            "coded_height": 2160,
            "has_b_frames": 3,
            "sample_aspect_ratio": "1:1",
            "display_aspect_ratio": "16:9",
            "pix_fmt": "yuv420p10le",
            "level": 153,
            "color_range": "tv",
            "color_transfer": "smpte2084",
            "color_primaries": "bt2020",
            "refs": 1,
            "id": "0x1011",
            "r_frame_rate": "24000/1001",
            "avg_frame_rate": "24000/1001",
            "time_base": "1/90000",
            "start_pts": 426603555,
            "start_time": "4740.039500",
            "disposition": {
                "default": 0,
                "dub": 0,
                "original": 0,
                "comment": 0,
                "lyrics": 0,
                "karaoke": 0,
                "forced": 0,
                "hearing_impaired": 0,
                "visual_impaired": 0,
                "clean_effects": 0,
                "attached_pic": 0
            }
        },
        {
            "index": 1,
            "codec_name": "dts",
            "codec_long_name": "DCA (DTS Coherent Acoustics)",
            "profile": "DTS",
            "codec_type": "audio",
            "codec_time_base": "1/48000",
            "codec_tag_string": "[0][0][0][0]",
            "codec_tag": "0x0000",
            "sample_fmt": "fltp",
            "sample_rate": "48000",
            "channels": 6,
            "channel_layout": "5.1(side)",
            "bits_per_sample": 0,
            "id": "0x1101",
            "r_frame_rate": "0/0",
            "avg_frame_rate": "0/0",
            "time_base": "1/90000",
            "start_pts": 426600000,
            "start_time": "4740.000000",
            "duration_ts": 5159040,
            "duration": "57.322667",
            "bit_rate": "768000",
            "bits_per_raw_sample": "24",
            "disposition": {
                "default": 0,
                "dub": 0,
                "original": 0,
                "comment": 0,
                "lyrics": 0,
                "karaoke": 0,
                "forced": 0,
                "hearing_impaired": 0,
                "visual_impaired": 0,
                "clean_effects": 0,
                "attached_pic": 0
            }
        },
        {
            "index": 2,
            "codec_name": "dts",
            "codec_long_name": "DCA (DTS Coherent Acoustics)",
            "profile": "DTS",
            "codec_type": "audio",
            "codec_time_base": "1/48000",
            "codec_tag_string": "[0][0][0][0]",
            "codec_tag": "0x0000",
            "sample_fmt": "fltp",
            "sample_rate": "48000",
            "channels": 6,
            "channel_layout": "5.1(side)",
            "bits_per_sample": 0,
            "id": "0x1102",
            "r_frame_rate": "0/0",
            "avg_frame_rate": "0/0",
            "time_base": "1/90000",
            "start_pts": 426600000,
            "start_time": "4740.000000",
            "duration_ts": 5159040,
            "duration": "57.322667",
            "bit_rate": "768000",
            "bits_per_raw_sample": "24",
            "disposition": {
                "default": 0,
                "dub": 0,
                "original": 0,
                "comment": 0,
                "lyrics": 0,
                "karaoke": 0,
                "forced": 0,
                "hearing_impaired": 0,
                "visual_impaired": 0,
                "clean_effects": 0,
                "attached_pic": 0
            }
        },
        {
            "index": 3,
            "codec_name": "dts",
            "codec_long_name": "DCA (DTS Coherent Acoustics)",
            "profile": "DTS",
            "codec_type": "audio",
            "codec_time_base": "1/48000",
            "codec_tag_string": "[0][0][0][0]",
            "codec_tag": "0x0000",
            "sample_fmt": "fltp",
            "sample_rate": "48000",
            "channels": 6,
            "channel_layout": "5.1(side)",
            "bits_per_sample": 0,
            "id": "0x1103",
            "r_frame_rate": "0/0",
            "avg_frame_rate": "0/0",
            "time_base": "1/90000",
            "start_pts": 426600000,
            "start_time": "4740.000000",
            "duration_ts": 5159040,
            "duration": "57.322667",
            "bit_rate": "768000",
            "bits_per_raw_sample": "24",
            "disposition": {
                "default": 0,
                "dub": 0,
                "original": 0,
                "comment": 0,
                "lyrics": 0,
                "karaoke": 0,
                "forced": 0,
                "hearing_impaired": 0,
                "visual_impaired": 0,
                "clean_effects": 0,
                "attached_pic": 0
            }
        },
        {
            "index": 4,
            "codec_name": "dts",
            "codec_long_name": "DCA (DTS Coherent Acoustics)",
            "profile": "DTS",
            "codec_type": "audio",
            "codec_time_base": "1/48000",
            "codec_tag_string": "[0][0][0][0]",
            "codec_tag": "0x0000",
            "sample_fmt": "fltp",
            "sample_rate": "48000",
            "channels": 6,
            "channel_layout": "5.1(side)",
            "bits_per_sample": 0,
            "id": "0x1104",
            "r_frame_rate": "0/0",
            "avg_frame_rate": "0/0",
            "time_base": "1/90000",
            "start_pts": 426600000,
            "start_time": "4740.000000",
            "duration_ts": 5159040,
            "duration": "57.322667",
            "bit_rate": "768000",
            "bits_per_raw_sample": "24",
            "disposition": {
                "default": 0,
                "dub": 0,
                "original": 0,
                "comment": 0,
                "lyrics": 0,
                "karaoke": 0,
                "forced": 0,
                "hearing_impaired": 0,
                "visual_impaired": 0,
                "clean_effects": 0,
                "attached_pic": 0
            }
        }
    ],
    "format": {
        "filename": "http://mulcagate05myt.mds.yandex.net:10010/gate/get/320.yadisk:595372337.E1018451:272193724674928630448330457229?service=disk&ns=disk",
        "nb_streams": 5,
        "nb_programs": 1,
        "format_name": "mpegts",
        "format_long_name": "MPEG-TS (MPEG-2 Transport Stream)",
        "start_time": "4740.000000",
        "duration": "57.322667",
        "size": "529287304",
        "bit_rate": "73867784",
        "probe_score": 100
    }
}
